# Blender v2.93.0 OBJ File: ''
# www.blender.org
mtllib ComplexShelf.mtl
o Cylinder_Cylinder.001
v -0.123607 0.393206 -0.500000
v 0.123607 0.393206 -0.500000
v -0.123607 0.176264 -0.450484
v 0.123607 0.176265 -0.450485
v -0.123607 0.002290 -0.311745
v 0.123607 0.002291 -0.311745
v -0.123607 0.002290 0.311745
v 0.123607 0.002291 0.311745
v -0.123607 0.176264 0.450485
v 0.123607 0.176265 0.450484
v -0.123607 0.393206 0.500000
v 0.123607 0.393206 0.500000
v -0.123607 0.610148 0.450485
v 0.123607 0.610148 0.450484
v -0.123607 0.784122 0.311745
v 0.123607 0.784122 0.311745
v -0.123607 0.880670 0.111261
v 0.123607 0.880670 0.111260
v -0.123607 0.880670 -0.111260
v 0.123607 0.880670 -0.111261
v -0.123607 0.784122 -0.311745
v 0.123607 0.784122 -0.311745
v -0.123607 0.610148 -0.450484
v 0.123607 0.610148 -0.450485
v 0.123607 0.393206 -0.465001
v 0.123607 0.191450 -0.418951
v 0.123607 0.033825 -0.296559
v 0.123607 0.033825 0.296559
v 0.123607 0.191450 0.418950
v 0.123607 0.393206 0.465000
v 0.123607 0.594962 0.418950
v 0.123607 0.756758 0.289924
v 0.123607 0.846548 0.103473
v 0.123607 0.846548 -0.103473
v 0.123607 0.756758 -0.289924
v 0.123607 0.594962 -0.418951
v -0.100498 0.393206 -0.463161
v -0.090216 0.393206 -0.473315
v -0.097486 0.393206 -0.470507
v -0.100657 0.192224 -0.417290
v -0.090216 0.187842 -0.426442
v -0.097533 0.189054 -0.423911
v -0.101776 0.037289 -0.294862
v -0.091578 0.027311 -0.299696
v -0.098825 0.030105 -0.298342
v -0.101776 0.037289 0.294862
v -0.091578 0.027311 0.299696
v -0.098825 0.030105 0.298342
v -0.100657 0.192224 0.417290
v -0.090216 0.187842 0.426442
v -0.097533 0.189054 0.423911
v -0.100498 0.393206 0.463161
v -0.090216 0.393206 0.473315
v -0.097486 0.393206 0.470507
v -0.100498 0.594164 0.417294
v -0.090216 0.598570 0.426442
v -0.097486 0.597351 0.423912
v -0.100498 0.755321 0.288776
v -0.090216 0.763259 0.295107
v -0.097486 0.761064 0.293356
v -0.100498 0.844755 0.103064
v -0.090216 0.854654 0.105323
v -0.097486 0.851916 0.104699
v -0.100498 0.844755 -0.103064
v -0.090216 0.854654 -0.105323
v -0.097486 0.851916 -0.104698
v -0.100498 0.755321 -0.288776
v -0.090216 0.763259 -0.295107
v -0.097486 0.761064 -0.293356
v -0.100498 0.594164 -0.417294
v -0.090216 0.598570 -0.426442
v -0.097486 0.597351 -0.423912
v -0.097870 0.850650 0.021850
v -0.097870 0.317307 -0.021850
v -0.097870 0.850650 -0.021850
v 0.167184 0.317307 -0.021850
v -0.097870 0.374348 0.464447
v -0.097870 0.412065 0.464447
v -0.097870 0.374348 0.020735
v -0.097870 0.412065 0.020735
v 0.167184 0.374348 0.020735
v 0.167184 0.412065 0.020735
v -0.097870 0.363685 0.021850
v 0.167184 0.363685 0.021850
v -0.103946 0.361691 -0.463978
v -0.100281 0.316516 -0.450517
v 0.113181 0.316516 -0.450517
v 0.167184 0.317307 -0.400676
v 0.166761 0.363546 -0.403983
v 0.109516 0.361691 -0.463978
v 0.167184 0.801827 0.021850
v 0.118361 0.850650 0.021850
v 0.118361 0.850650 -0.021850
v 0.167184 0.801827 -0.021850
v -0.097870 0.317307 -0.013402
v -0.097870 0.352559 0.021850
v -0.097870 0.322030 0.004224
v -0.097870 0.334933 0.017127
v 0.167184 0.352559 0.021850
v 0.167184 0.317307 -0.013402
v 0.167184 0.334933 0.017127
v 0.167184 0.322030 0.004224
v -0.097870 0.398937 -0.021850
v -0.098354 0.363526 -0.057102
v -0.097934 0.381290 -0.026573
v -0.098112 0.368328 -0.039476
v 0.167145 0.363672 -0.057102
v 0.167184 0.398937 -0.021850
v 0.167164 0.368401 -0.039476
v 0.167179 0.381309 -0.026573
v 0.167184 0.374348 0.420118
v 0.122855 0.374348 0.464447
v 0.122855 0.412065 0.464447
v 0.167184 0.412065 0.420118
v 0.162497 0.819319 0.021850
v 0.155578 0.831304 0.021850
v 0.147838 0.839043 0.021850
v 0.135853 0.845963 0.021850
v 0.135853 0.845963 -0.021850
v 0.147838 0.839043 -0.021850
v 0.155578 0.831304 -0.021850
v 0.162497 0.819319 -0.021850
v 0.163099 0.374348 0.435363
v 0.156180 0.374348 0.447347
v 0.150084 0.374348 0.453443
v 0.138100 0.374348 0.460362
v 0.138100 0.412065 0.460362
v 0.150084 0.412065 0.453443
v 0.156180 0.412065 0.447347
v 0.163099 0.412065 0.435363
v 0.133325 0.316709 -0.444821
v 0.144676 0.316870 -0.438370
v 0.155016 0.317080 -0.428640
v 0.161881 0.317214 -0.417656
v 0.160223 0.363137 -0.424858
v 0.153671 0.362835 -0.436130
v 0.141416 0.362360 -0.449270
v 0.130516 0.362068 -0.456463
vt 1.000000 0.500000
vt 1.000000 1.000000
vt 0.928571 1.000000
vt 0.928571 0.500000
vt 0.857143 1.000000
vt 0.857143 0.500000
vt -0.000000 0.500000
vt 0.642857 0.500000
vt 0.571428 0.500000
vt 0.500000 0.500000
vt 0.428571 0.500000
vt 0.357143 0.500000
vt 0.285714 0.500000
vt 0.214286 0.500000
vt 0.142857 0.500000
vt 0.071428 0.500000
vt 0.642857 1.000000
vt 0.571428 1.000000
vt 0.500000 1.000000
vt 0.428571 1.000000
vt 0.357143 1.000000
vt 0.285714 1.000000
vt 0.214286 1.000000
vt 0.142857 1.000000
vt 0.071428 1.000000
vt -0.000000 1.000000
vt 0.071428 0.522939
vt -0.000000 0.522939
vt -0.000000 1.000000
vt 0.071428 1.000000
vt 0.857143 0.522810
vt 0.642857 0.522810
vt 0.642857 1.000000
vt 0.857143 1.000000
vt 1.000000 0.522939
vt 0.928571 0.522939
vt 0.928571 1.000000
vt 1.000000 1.000000
vt 0.571428 0.522939
vt 0.500000 0.522939
vt 0.500000 1.000000
vt 0.571428 1.000000
vt 0.428571 0.522939
vt 0.428571 1.000000
vt 0.357143 0.522940
vt 0.357143 1.000000
vt 0.285714 0.522940
vt 0.285714 1.000000
vt 0.214286 0.522940
vt 0.214286 1.000000
vt 0.142857 0.522940
vt 0.142857 1.000000
vt 0.034772 0.500000
vt 0.894437 0.500000
vt 0.925458 0.500000
vt 0.003144 0.500000
vt 0.999758 0.500000
vt 0.928811 0.500000
vt 0.850685 0.500000
vt 0.857140 0.500000
vt 0.928332 0.500000
vt 0.640025 0.500000
vt 0.642860 0.500000
vt 0.570027 0.500000
vt 0.571428 0.500000
vt 0.499567 0.500000
vt 0.500000 0.500000
vt 0.429145 0.500000
vt 0.428571 0.500000
vt 0.358757 0.500000
vt 0.357143 0.500000
vt 0.288465 0.500000
vt 0.285714 0.500000
vt 0.218365 0.500000
vt 0.214286 0.500000
vt 0.148642 0.500000
vt 0.142857 0.500000
vt 0.079816 0.500000
vt 0.071428 0.500000
vt 0.000242 0.500000
vt 0.391524 0.750000
vt 0.396739 0.750000
vt 0.396739 1.000000
vt 0.391524 1.000000
vt 0.671050 0.500000
vt 0.671050 0.750000
vt 0.654551 0.750000
vt 0.654551 0.500000
vt 0.375000 0.250000
vt 0.625000 0.250000
vt 0.625000 0.500000
vt 0.375000 0.500000
vt 0.375000 0.791812
vt 0.625000 0.791812
vt 0.625000 1.000000
vt 0.375000 1.000000
vt 0.625000 0.725024
vt 0.375000 0.725024
vt 0.375000 0.500000
vt 0.375000 0.500000
vt 0.396739 0.500000
vt 0.396739 0.500000
vt 0.396739 0.500014
vt 0.396739 0.500051
vt 0.413263 0.500000
vt 0.602115 0.500000
vt 0.602115 0.750000
vt 0.383262 0.722981
vt 0.377214 0.649164
vt 0.375000 0.548328
vt 0.125000 0.500000
vt 0.125000 0.548328
vt 0.375000 0.250000
vt 0.396739 0.250000
vt 0.396739 0.451339
vt 0.375000 0.451339
vt 0.125000 0.500000
vt 0.371147 0.733613
vt 0.364621 0.740366
vt 0.358872 0.743800
vt 0.347568 0.747698
vt 0.333188 0.750000
vt 0.125000 0.750000
vt 0.396739 0.250000
vt 0.396739 0.498336
vt 0.396739 0.493118
vt 0.396739 0.480438
vt 0.396739 0.470060
vt 0.375000 0.469784
vt 0.375000 0.500000
vt 0.375000 0.494121
vt 0.375000 0.481622
vt 0.413263 0.250000
vt 0.625000 0.250000
vt 0.625000 0.453950
vt 0.622803 0.470449
vt 0.619560 0.481753
vt 0.615932 0.489053
vt 0.610314 0.495579
vt 0.610314 0.500000
vt 0.610314 0.750000
vt 0.610314 0.754421
vt 0.615932 0.760947
vt 0.619560 0.768247
vt 0.622803 0.779551
vt 0.625000 0.796050
vt 0.625000 1.000000
vt 0.875000 0.500000
vt 0.875000 0.750000
vt 0.375000 0.649164
vt 0.125000 0.649164
vt 0.375000 0.750000
vt 0.125000 0.750000
vt 0.383262 1.000000
vt 0.383262 0.750000
vt 0.405000 0.499995
vt 0.404991 0.249939
vt 0.396739 0.250013
vt 0.875000 0.500000
vt 0.875000 0.750000
vt 0.666812 0.750000
vt 0.652432 0.747698
vt 0.641128 0.743800
vt 0.635379 0.740366
vt 0.628853 0.733613
vt 0.625000 0.733613
vt 0.375000 0.733613
vt 0.375000 0.777432
vt 0.625000 0.777432
vt 0.625000 0.760481
vt 0.375000 0.760481
vt 0.375000 0.747936
vt 0.625000 0.747937
vt 0.638255 0.750000
vt 0.638255 0.500000
vt 0.623327 0.500000
vt 0.623327 0.750000
vt 0.125000 0.500000
vt 0.326339 0.500000
vt 0.344784 0.500000
vt 0.355027 0.500000
vt 0.364177 0.500000
vt 0.370267 0.500000
vn -0.0000 -0.0000 -1.0000
vn -0.0000 -0.4339 -0.9010
vn 0.0000 -0.6235 -0.7818
vn -1.0000 -0.0000 0.0000
vn 0.0000 -0.6235 0.7818
vn 0.0000 -0.4339 0.9010
vn 0.0000 0.0000 1.0000
vn 0.0000 0.4339 0.9010
vn -0.0000 0.7818 0.6235
vn -0.0000 0.9749 0.2225
vn -0.0000 0.9749 -0.2225
vn -0.0000 0.7818 -0.6235
vn -0.0000 0.4339 -0.9010
vn 0.0000 -1.0000 0.0000
vn 0.1597 -0.4283 0.8894
vn 0.1594 0.0000 0.9872
vn -0.0389 -0.0000 0.9992
vn -0.0389 -0.4336 0.9003
vn 0.1574 0.9875 -0.0000
vn -0.0303 0.9995 0.0000
vn 0.1606 0.4246 0.8910
vn -0.0368 0.4296 0.9023
vn 0.1606 0.4246 -0.8910
vn 0.1594 0.0000 -0.9872
vn -0.0389 -0.0000 -0.9992
vn -0.0368 0.4296 -0.9023
vn 0.1597 -0.4283 -0.8894
vn -0.0389 -0.4336 -0.9003
vn 0.1597 -0.7718 -0.6155
vn -0.0389 -0.7812 -0.6230
vn 0.1597 -0.9624 -0.2197
vn -0.0389 -0.9742 -0.2224
vn 0.1597 -0.9624 0.2197
vn -0.0389 -0.9742 0.2224
vn 0.1597 -0.7718 0.6155
vn -0.0389 -0.7812 0.6230
vn 0.1539 0.6098 0.7774
vn -0.0340 0.6163 0.7868
vn 0.1539 0.6098 -0.7774
vn -0.0340 0.6163 -0.7868
vn 1.0000 0.0000 -0.0000
vn 0.9752 -0.0004 0.2215
vn 0.9750 0.0937 0.2014
vn 0.9231 0.1630 0.3482
vn 0.9240 0.0005 0.3824
vn 0.3598 0.0000 0.9330
vn 0.3608 0.4018 0.8416
vn 0.9741 0.2020 0.1016
vn 0.9365 0.3134 0.1574
vn 0.3549 0.5776 0.7351
vn 0.9741 0.2020 -0.1016
vn 0.9365 0.3134 -0.1574
vn 0.3596 0.9331 -0.0000
vn 0.9750 0.0937 -0.2014
vn 0.9231 0.1630 -0.3482
vn 0.3549 0.5776 -0.7351
vn 0.3608 0.4018 -0.8416
vn 0.9752 -0.0004 -0.2214
vn 0.9240 0.0005 -0.3824
vn 0.3598 0.0000 -0.9330
vn 0.9755 -0.0959 -0.1978
vn 0.9253 -0.1646 -0.3418
vn 0.3603 -0.4047 -0.8404
vn 0.9755 -0.1723 -0.1369
vn 0.9253 -0.2966 -0.2365
vn 0.3603 -0.7293 -0.5816
vn 0.9755 -0.2147 -0.0489
vn 0.9253 -0.3698 -0.0844
vn 0.3603 -0.9094 -0.2076
vn 0.9755 -0.2147 0.0489
vn 0.9253 -0.3698 0.0844
vn 0.3603 -0.9094 0.2076
vn 0.9755 -0.1723 0.1369
vn 0.9253 -0.2966 0.2365
vn 0.3603 -0.7293 0.5816
vn 0.9755 -0.0959 0.1978
vn 0.9253 -0.1646 0.3418
vn 0.3603 -0.4047 0.8404
vn 0.0000 -0.1305 0.9914
vn 0.1305 0.9914 0.0000
vn 0.3827 0.9239 0.0000
vn 0.1305 0.0000 0.9914
vn 0.9914 0.0000 0.1305
vn 1.0000 0.0021 -0.0003
vn 0.9895 -0.0050 -0.1445
vn 0.9876 -0.0056 -0.1570
vn 0.9913 0.1315 -0.0001
vn 0.0007 -1.0000 0.0009
vn 0.0007 -1.0000 0.0008
vn 0.0000 -0.9914 0.1305
vn 0.0000 -0.2856 -0.9584
vn 0.1404 -0.2652 -0.9539
vn 0.1623 -0.2615 -0.9514
vn -0.0019 0.9912 -0.1327
vn -0.0019 0.9910 -0.1339
vn -0.0033 1.0000 -0.0044
vn 0.4015 -0.2085 -0.8918
vn 0.4214 -0.2029 -0.8839
vn 0.9162 -0.0317 -0.3994
vn 0.9073 -0.0355 -0.4189
vn 0.7822 -0.0822 -0.6176
vn 0.7940 -0.0781 -0.6029
vn 0.6289 -0.1362 -0.7655
vn 0.6068 -0.1441 -0.7817
vn -0.0000 0.1306 -0.9914
vn -0.0000 0.1304 -0.9915
vn 0.9239 0.3827 -0.0000
vn 0.0000 1.0000 0.0000
vn 0.0000 -0.9659 0.2588
vn 0.0000 -0.7071 0.7071
vn 0.0000 -0.5000 0.8660
vn -0.0001 0.4993 -0.8664
vn -0.0001 0.5004 -0.8658
vn -0.0003 0.8651 -0.5017
vn -0.0003 0.8661 -0.4998
vn 0.9239 0.0000 0.3827
vn 0.3827 0.0000 0.9239
vn 0.6088 0.0000 0.7934
vn 0.7934 0.0000 0.6088
vn 0.6088 0.7934 0.0000
vn 0.7934 0.6088 0.0000
vn 0.0014 -1.0000 0.0017
usemtl Top
s 1
f 1/1/1 2/2/1 4/3/2 3/4/2
f 3/4/2 4/3/2 6/5/3 5/6/3
f 1/7/4 3/4/4 5/6/4 7/8/4 9/9/4 11/10/4 13/11/4 15/12/4 17/13/4 19/14/4 21/15/4 23/16/4
f 7/8/5 8/17/5 10/18/6 9/9/6
f 9/9/6 10/18/6 12/19/7 11/10/7
f 11/10/7 12/19/7 14/20/8 13/11/8
f 13/11/8 14/20/8 16/21/9 15/12/9
f 15/12/9 16/21/9 18/22/10 17/13/10
f 17/13/10 18/22/10 20/23/11 19/14/11
f 19/14/11 20/23/11 22/24/12 21/15/12
f 21/15/12 22/24/12 24/25/13 23/16/13
f 23/16/13 24/25/13 2/26/1 1/7/1
f 5/6/14 6/5/14 8/17/14 7/8/14
f 71/27/15 38/28/16 25/29/17 36/30/18
f 44/31/19 47/32/19 28/33/20 27/34/20
f 38/35/16 41/36/21 26/37/22 25/38/17
f 50/39/23 53/40/24 30/41/25 29/42/26
f 53/40/24 56/43/27 31/44/28 30/41/25
f 56/43/27 59/45/29 32/46/30 31/44/28
f 59/45/29 62/47/31 33/48/32 32/46/30
f 62/47/31 65/49/33 34/50/34 33/48/32
f 65/49/33 68/51/35 35/52/36 34/50/34
f 68/51/35 71/27/15 36/30/18 35/52/36
f 41/36/21 44/31/37 27/34/38 26/37/22
f 47/32/39 50/39/23 29/42/26 28/33/40
f 4/3/41 2/2/41 25/38/41 26/37/41
f 6/5/41 4/3/41 26/37/41 27/34/41
f 8/17/41 6/5/41 27/34/41 28/33/41
f 10/18/41 8/17/41 28/33/41 29/42/41
f 12/19/41 10/18/41 29/42/41 30/41/41
f 14/20/41 12/19/41 30/41/41 31/44/41
f 16/21/41 14/20/41 31/44/41 32/46/41
f 18/22/41 16/21/41 32/46/41 33/48/41
f 20/23/41 18/22/41 33/48/41 34/50/41
f 22/24/41 20/23/41 34/50/41 35/52/41
f 24/25/41 22/24/41 35/52/41 36/30/41
f 2/26/41 24/25/41 36/30/41 25/29/41
f 37/53/42 40/54/43 42/55/44 39/56/45
f 39/57/46 42/58/47 41/36/21 38/35/16
f 40/54/43 43/59/48 45/60/49 42/61/44
f 42/61/47 45/60/50 44/31/37 41/36/21
f 43/59/48 46/62/51 48/63/52 45/60/49
f 45/60/53 48/63/53 47/32/19 44/31/19
f 46/62/51 49/64/54 51/65/55 48/63/52
f 48/63/56 51/65/57 50/39/23 47/32/39
f 49/64/54 52/66/58 54/67/59 51/65/55
f 51/65/57 54/67/60 53/40/24 50/39/23
f 52/66/58 55/68/61 57/69/62 54/67/59
f 54/67/60 57/69/63 56/43/27 53/40/24
f 55/68/61 58/70/64 60/71/65 57/69/62
f 57/69/63 60/71/66 59/45/29 56/43/27
f 58/70/64 61/72/67 63/73/68 60/71/65
f 60/71/66 63/73/69 62/47/31 59/45/29
f 61/72/67 64/74/70 66/75/71 63/73/68
f 63/73/69 66/75/72 65/49/33 62/47/31
f 64/74/70 67/76/73 69/77/74 66/75/71
f 66/75/72 69/77/75 68/51/35 65/49/33
f 67/76/73 70/78/76 72/79/77 69/77/74
f 69/77/75 72/79/78 71/27/15 68/51/35
f 70/78/76 37/53/42 39/80/45 72/79/77
f 72/79/78 39/80/46 38/28/16 71/27/15
f 37/53/42 70/78/76 67/76/73 64/74/70 61/72/67 58/70/64 55/68/61 52/66/58 49/64/54 46/62/51 43/59/48 40/54/43
f 99/81/79 84/82/7 83/83/7 96/84/79
f 93/85/80 92/86/80 118/87/81 119/88/81
f 79/89/1 80/90/1 82/91/1 81/92/1
f 112/93/82 113/94/82 78/95/7 77/96/7
f 81/92/41 82/91/41 114/97/83 111/98/83
f 76/99/84 88/100/85 89/101/86 107/102/84 109/103/84 110/104/84 108/105/84 94/106/87 91/107/87 84/82/84 99/81/84 101/108/84 102/109/84 100/110/84
f 74/111/88 76/99/89 100/110/90 95/112/90
f 86/113/91 85/114/91 90/115/92 87/116/93
f 79/117/14 81/92/14 111/98/14 123/118/14 124/119/14 125/120/14 126/121/14 112/122/14 77/123/14
f 104/124/94 107/102/95 89/101/96 135/125/96 136/126/96 137/127/96 138/128/96 90/115/96 85/114/96
f 138/128/97 131/129/98 87/116/93 90/115/92
f 89/101/86 88/100/85 134/130/99 135/125/100
f 136/126/101 133/131/102 132/132/103 137/127/104
f 103/133/105 75/134/1 93/135/1 119/136/1 120/137/1 121/138/1 122/139/1 94/106/1 108/105/106
f 122/140/107 115/141/107 91/107/87 94/106/87
f 84/82/7 91/107/7 115/142/7 116/143/7 117/144/7 118/145/7 92/146/7 73/147/7 83/83/7
f 93/85/80 75/148/108 73/149/108 92/86/80
f 95/112/90 100/110/90 102/150/109 97/151/109
f 97/151/110 102/150/110 101/152/111 98/153/111
f 98/154/111 101/155/111 99/81/79 96/84/79
f 103/133/105 108/105/106 110/156/112 105/157/113
f 105/157/113 110/156/112 109/103/114 106/158/115
f 106/158/115 109/103/114 107/102/95 104/124/94
f 82/91/108 80/159/108 78/160/108 113/161/108 127/162/108 128/163/108 129/164/108 130/165/108 114/97/108
f 130/166/116 123/167/116 111/98/83 114/97/83
f 113/94/82 112/93/82 126/168/117 127/169/117
f 128/170/118 125/171/118 124/172/119 129/173/119
f 117/174/120 120/175/120 119/88/81 118/87/81
f 115/141/107 122/140/107 121/176/121 116/177/121
f 125/171/118 128/170/118 127/169/117 126/168/117
f 123/167/116 130/166/116 129/173/119 124/172/119
f 120/175/120 117/174/120 116/177/121 121/176/121
f 133/131/102 136/126/101 135/125/100 134/130/99
f 131/129/98 138/128/97 137/127/104 132/132/103
f 76/99/89 74/111/88 86/178/122 87/179/122 131/180/122 132/181/122 133/182/122 134/183/122 88/100/122
